<svg xmlns="http://www.w3.org/2000/svg" viewBox="0 0 512 512" role="img" aria-label="Le Scribe">
  <defs>
    <linearGradient id="g" x1="0" y1="0" x2="1" y2="1">
      <stop offset="0" stop-color="#2b241c"/>
      <stop offset="1" stop-color="#8c6a2f"/>
    </linearGradient>
  </defs>
  <rect width="512" height="512" rx="112" fill="url(#g)"/>
  <circle cx="256" cy="256" r="154" fill="#efe4c8" opacity=".96"/>
  <path d="M180 352c42-95 70-167 93-215 12-25 27-42 45-51 10-5 18-2 24 7 7 10 6 23-2 39-20 41-46 86-78 136-28 45-55 83-82 114z" fill="#2b241c"/>
  <path d="M159 369c58-18 113-27 166-27 11 0 17 6 17 17 0 10-6 16-18 16-57 0-108 8-151 23-15 5-25 1-30-11-5-10 0-15 16-18z" fill="#8c6a2f"/>
  <path d="M314 109l51 30-31 52-49-31z" fill="#d7b86d"/>
</svg>